# xmcd
#
# Track frame offsets:
#	150
#	12261
#	27942
#	43490
#	56237
#	66007
#	77639
#	87837
#	107949
#	119031
#	135829
#	147245
#	171928
#
# Disc length: 2691 seconds
#
# Revision: 4
# Processed by: cddbd v1.5PL3 Copyright (c) Steve Scherf et al.
# Submitted via: audiograbber 1.83.01
#
DISCID=b70a810d
DTITLE=Kenny Roby and Neal Casal - Black River Sides
DYEAR=1999
DGENRE=alt.country
TTITLE0=Chopping Block
TTITLE1=Town Fathers
TTITLE2=Sailor's Request
TTITLE3=If You Don't Want My Love
TTITLE4=When I Loved You
TTITLE5=Snow Don't Fall
TTITLE6=Guilty
TTITLE7=Maybe California
TTITLE8=Squirrel Song
TTITLE9=Just Another Thing
TTITLE10=Ain't Got the Time
TTITLE11=Outskirts
TTITLE12=Crickets of Columbia
EXTD=
EXTT0=
EXTT1=
EXTT2=
EXTT3=
EXTT4=
EXTT5=
EXTT6=
EXTT7=
EXTT8=
EXTT9=
EXTT10=
EXTT11=
EXTT12=
PLAYORDER=
